<svg width="15" height="13" viewBox="0 0 15 13" fill="none" xmlns="http://www.w3.org/2000/svg">
<path fill-rule="evenodd" clip-rule="evenodd" d="M4.83545 0.159546C3.60722 2.28717 4.33615 5.0078 6.46377 6.23658C7.692 4.10896 6.96307 1.38833 4.83545 0.159546ZM7.42673 7.90438C7.42673 10.3614 5.43503 12.3531 2.97802 12.3531C2.97802 9.89608 4.96971 7.90438 7.42672 7.90438H7.42673ZM6.46375 6.23657C4.33613 5.00834 1.6155 5.73728 0.386719 7.8649C2.51434 9.09313 5.23497 8.36419 6.46375 6.23657ZM14.4667 7.8649C12.3386 9.09313 9.61792 8.36419 8.38968 6.23657C8.38968 6.23658 8.38968 6.23658 8.38968 6.23658C7.16145 4.10841 7.89038 1.38778 10.018 0.159546C11.2457 2.28674 10.518 5.00585 8.39261 6.23489C10.5198 5.00901 13.239 5.73825 14.4667 7.8649Z" fill="white"/>
</svg>
